<?xml version="1.0" standalone="no"?>
<!DOCTYPE svg PUBLIC "-//W3C//DTD SVG 20010904//EN"
 "http://www.w3.org/TR/2001/REC-SVG-20010904/DTD/svg10.dtd">
<svg version="1.0" xmlns="http://www.w3.org/2000/svg"
 width="689.000000pt" height="689.000000pt" viewBox="0 0 689.000000 689.000000"
 preserveAspectRatio="xMidYMid meet">
<metadata>
Created by potrace 1.14, written by Peter Selinger 2001-2017
</metadata>
<g transform="translate(0.000000,689.000000) scale(0.100000,-0.100000)"
fill="#000000" stroke="none">
<path d="M3185 6870 c-4 -6 -11 -8 -16 -5 -5 4 -9 2 -9 -3 0 -4 -17 -7 -37 -5
-21 1 -53 -1 -70 -6 -22 -6 -33 -6 -33 1 0 7 -5 7 -13 -1 -8 -6 -17 -8 -20 -4
-4 3 -7 2 -7 -3 0 -5 -15 -9 -33 -10 -33 -1 -89 -9 -142 -20 -16 -4 -40 -7
-52 -7 -13 -1 -23 -5 -23 -10 0 -5 -7 -6 -16 -3 -9 3 -21 3 -27 -1 -7 -4 -21
-9 -32 -10 -10 -2 -23 -9 -27 -16 -6 -9 -8 -9 -8 1 0 10 -5 10 -20 2 -11 -6
-25 -8 -30 -5 -5 3 -11 1 -14 -4 -3 -5 -23 -12 -43 -17 -42 -8 -42 -8 -63 -17
-43 -17 -207 -70 -217 -70 -7 0 -13 -4 -13 -9 0 -5 -4 -7 -9 -3 -5 3 -12 1
-16 -5 -3 -5 -15 -10 -26 -10 -10 0 -19 -5 -19 -11 0 -6 -7 -9 -15 -5 -8 3
-15 1 -15 -4 0 -6 -3 -9 -7 -8 -5 0 -25 -6 -45 -15 -21 -10 -42 -17 -48 -17
-5 0 -10 -5 -10 -11 0 -5 -4 -7 -10 -4 -5 3 -10 2 -10 -3 0 -8 -36 -23 -62
-26 -4 -1 -15 -8 -25 -16 -10 -8 -38 -24 -63 -35 -25 -11 -47 -22 -50 -25 -3
-3 -25 -16 -50 -29 -25 -13 -50 -29 -55 -35 -6 -6 -15 -12 -21 -13 -6 -1 -41
-23 -78 -48 -36 -25 -71 -45 -76 -45 -6 0 -10 -3 -10 -8 0 -4 -18 -18 -39 -32
-22 -13 -37 -28 -34 -34 3 -5 1 -6 -5 -2 -11 6 -36 -10 -73 -48 -11 -11 -19
-17 -19 -13 0 3 -13 -6 -29 -21 -36 -35 -71 -63 -71 -58 0 2 -20 -15 -44 -38
-188 -178 -226 -216 -226 -226 0 -6 -4 -8 -10 -5 -6 3 -10 3 -10 -2 0 -4 -22
-33 -50 -63 -66 -73 -69 -77 -114 -135 -22 -27 -46 -54 -53 -58 -7 -5 -11 -12
-8 -18 4 -5 2 -9 -3 -9 -5 0 -23 -22 -41 -50 -18 -27 -37 -50 -43 -50 -6 0 -9
-3 -5 -6 3 -4 -5 -21 -18 -39 -14 -17 -25 -35 -25 -38 0 -4 -7 -15 -15 -24 -8
-10 -16 -22 -17 -28 0 -5 -6 -14 -13 -20 -7 -5 -23 -30 -36 -55 -13 -25 -26
-47 -29 -50 -3 -3 -19 -32 -35 -65 -17 -33 -32 -62 -35 -65 -9 -8 -34 -64 -32
-72 1 -3 -5 -12 -13 -18 -8 -7 -15 -18 -15 -24 0 -6 -9 -28 -20 -49 -11 -20
-18 -37 -15 -37 3 0 -1 -10 -9 -22 -7 -13 -19 -40 -26 -60 -6 -21 -16 -38 -22
-38 -6 0 -9 -3 -5 -6 3 -4 0 -22 -8 -41 -8 -19 -12 -39 -9 -44 3 -5 0 -9 -5
-9 -6 0 -11 -6 -11 -12 0 -7 -6 -24 -13 -39 -8 -14 -13 -33 -11 -42 1 -9 -2
-17 -7 -17 -6 0 -7 -4 -4 -10 3 -5 1 -10 -5 -10 -6 0 -9 -4 -6 -9 4 -5 1 -22
-5 -38 -7 -15 -13 -39 -15 -52 -2 -13 -8 -27 -15 -31 -8 -6 -8 -9 1 -15 8 -5
9 -10 2 -14 -11 -7 -24 -53 -24 -83 1 -10 -3 -18 -8 -18 -5 0 -7 -8 -5 -19 2
-10 -3 -31 -10 -45 -8 -15 -9 -24 -4 -20 8 4 9 -1 3 -17 -4 -13 -8 -33 -10
-44 -1 -11 -3 -20 -4 -20 -2 0 -4 -19 -9 -73 -1 -8 -6 -10 -14 -6 -9 5 -9 4 0
-6 7 -8 8 -21 4 -34 -5 -11 -7 -31 -6 -43 1 -13 -3 -23 -8 -23 -5 0 -4 -7 3
-15 7 -9 8 -15 2 -15 -6 0 -9 -23 -9 -55 1 -30 -2 -55 -6 -55 -5 0 -6 -138 -4
-307 6 -345 8 -373 17 -373 4 0 7 -7 7 -15 0 -8 -5 -15 -10 -15 -6 0 -5 -5 1
-13 5 -6 12 -32 15 -57 3 -25 8 -61 12 -80 3 -19 7 -45 8 -57 0 -13 4 -23 7
-23 3 0 6 -10 7 -22 2 -48 8 -78 15 -78 4 0 5 -9 3 -20 -2 -11 0 -22 5 -25 5
-3 7 -12 3 -20 -3 -8 -1 -15 4 -15 5 0 9 -10 10 -22 3 -34 25 -111 36 -126 5
-7 7 -15 4 -19 -4 -3 -1 -15 5 -27 7 -11 11 -25 10 -29 -1 -4 6 -25 17 -47 11
-22 14 -37 8 -33 -7 3 -5 -2 4 -13 9 -10 14 -25 12 -31 -3 -7 0 -13 7 -13 6 0
8 -4 5 -10 -3 -5 -1 -10 5 -10 6 0 9 -4 5 -9 -3 -5 -1 -12 5 -16 6 -4 8 -11 5
-16 -4 -5 -2 -9 4 -9 6 0 8 -7 5 -15 -4 -8 -1 -15 7 -15 7 0 9 -3 6 -6 -3 -4
-1 -16 5 -28 7 -11 13 -23 13 -26 0 -3 13 -31 28 -64 15 -32 27 -62 27 -67 0
-5 5 -9 10 -9 6 0 10 -9 10 -20 0 -11 5 -20 10 -20 6 0 10 -8 10 -19 0 -10 7
-24 15 -31 8 -7 13 -16 10 -20 -2 -4 4 -18 15 -30 18 -21 24 -35 18 -43 -2 -1
7 -13 20 -27 12 -13 22 -30 22 -37 0 -7 5 -13 12 -13 6 0 9 -3 5 -6 -3 -3 -1
-11 4 -18 5 -6 33 -47 61 -91 29 -44 57 -83 62 -87 6 -4 8 -8 4 -8 -7 0 11
-25 39 -55 7 -8 13 -18 13 -24 0 -6 5 -11 12 -11 6 0 9 -3 6 -6 -3 -3 4 -15
16 -28 11 -12 50 -58 85 -102 36 -43 86 -100 112 -126 26 -27 45 -48 42 -48
-2 0 21 -25 52 -55 32 -30 62 -55 68 -55 6 0 8 -3 4 -6 -6 -6 5 -17 90 -89 25
-22 54 -47 63 -55 8 -9 33 -29 55 -45 48 -36 73 -56 89 -70 6 -6 34 -26 61
-45 28 -19 52 -37 53 -42 2 -4 10 -8 18 -8 8 0 14 -4 14 -10 0 -5 7 -10 15
-10 9 0 18 -7 22 -16 3 -8 11 -13 18 -10 6 2 18 -4 26 -15 7 -10 21 -19 31
-19 10 0 18 -4 18 -8 0 -5 20 -19 45 -32 25 -13 45 -27 45 -32 0 -4 3 -7 8 -6
7 2 63 -23 72 -32 7 -7 79 -40 86 -39 4 0 10 -3 13 -8 7 -9 93 -53 101 -51 3
1 25 -9 49 -21 24 -13 53 -24 64 -27 11 -2 24 -9 29 -16 4 -7 8 -9 8 -5 0 4
10 2 23 -5 12 -7 24 -13 27 -13 21 -3 100 -31 100 -35 0 -3 12 -7 26 -8 15 -1
32 -6 38 -11 6 -5 27 -12 46 -17 45 -10 38 -8 90 -24 25 -8 53 -14 63 -13 9 0
17 -3 17 -7 0 -4 19 -10 43 -14 59 -9 122 -23 122 -26 0 -1 14 -3 30 -5 17 -2
46 -7 65 -10 19 -3 49 -8 65 -10 17 -2 30 -4 30 -5 0 -3 99 -12 152 -13 29 -1
53 -6 53 -11 0 -4 14 -6 30 -4 17 3 33 1 36 -4 3 -4 14 -3 25 2 14 8 19 7 19
-1 0 -8 4 -8 15 1 12 10 15 10 15 0 0 -10 3 -10 15 0 10 8 15 9 15 1 0 -7 8
-8 26 -1 18 7 23 7 18 -1 -5 -8 -1 -8 13 0 14 7 23 7 32 -2 8 -8 14 -8 19 -2
9 13 42 16 42 4 0 -5 11 -4 24 1 15 5 27 5 35 -3 8 -8 11 -8 11 2 0 11 3 11
15 1 11 -9 15 -9 15 -1 0 9 5 9 20 1 15 -8 20 -8 20 1 0 8 4 8 15 -1 9 -7 15
-8 15 -2 0 11 18 11 38 -1 7 -5 14 -3 17 5 4 9 23 13 58 12 28 -1 57 2 62 5
18 10 35 9 35 -2 0 -8 3 -8 8 -2 4 6 14 10 22 10 8 -1 19 1 25 4 5 3 21 6 35
7 14 1 41 5 60 8 61 12 94 18 113 17 9 0 17 4 17 9 0 4 11 7 25 5 14 -1 28 1
30 6 3 4 13 8 23 8 23 0 44 5 60 15 7 4 16 6 19 3 2 -3 23 1 45 9 22 7 44 12
48 9 5 -3 10 0 12 6 2 6 16 12 31 12 15 1 27 5 27 9 0 3 18 9 40 13 22 4 40
12 40 18 0 5 3 8 6 4 6 -5 43 6 109 33 29 12 49 18 56 16 4 0 15 6 25 15 11 8
26 15 34 14 8 0 17 2 20 5 11 14 70 38 64 27 -3 -7 0 -5 8 3 7 8 20 16 28 18
8 2 17 8 18 13 2 5 12 9 22 9 10 0 26 7 34 16 9 9 22 17 29 18 21 4 122 58
129 70 4 6 8 7 8 2 0 -5 7 -2 16 5 18 15 31 23 100 61 27 15 45 27 39 28 -5 0
8 9 30 20 22 11 53 31 69 45 16 13 32 23 35 20 4 -2 15 7 25 21 11 13 23 24
28 24 10 0 101 70 106 83 2 4 10 7 18 7 9 0 12 5 9 10 -3 6 -1 10 4 10 6 0 20
9 30 19 11 11 31 27 45 36 14 10 26 24 26 32 0 8 5 11 10 8 6 -3 10 -1 10 6 0
7 2 10 5 7 5 -5 205 187 205 197 0 3 23 27 51 55 28 27 48 50 45 50 -3 0 10
16 28 36 54 58 66 73 66 83 0 6 10 17 22 25 12 9 19 16 14 16 -5 0 0 8 11 17
11 10 23 28 27 41 4 12 12 20 17 17 5 -4 9 1 9 9 0 9 5 16 11 16 5 0 8 4 5 9
-4 5 -2 11 2 13 5 1 27 32 50 68 23 36 46 70 52 77 5 7 10 16 10 21 0 5 9 17
20 27 10 9 19 20 18 24 -2 8 17 46 51 106 16 27 27 54 24 59 -4 5 -1 6 5 2 11
-6 14 0 11 20 0 4 3 10 8 13 4 3 18 26 30 51 29 61 67 144 68 150 12 45 19 60
27 60 5 0 8 6 6 13 -1 6 3 22 10 35 7 12 10 22 6 22 -3 0 -1 6 5 13 6 8 8 17
4 20 -3 4 -1 7 5 7 7 0 11 3 10 8 -3 10 23 85 35 100 6 8 5 12 -4 12 -9 0 -10
3 -3 8 11 7 37 72 28 72 -3 0 0 8 5 18 6 11 13 32 16 48 10 46 10 48 16 59 4
6 5 18 4 28 -2 9 1 17 5 17 5 0 7 9 5 20 -2 11 -1 20 4 20 4 0 7 10 8 23 1 12
4 34 7 50 3 15 9 39 12 55 3 15 7 41 9 57 2 17 4 30 5 30 1 0 4 14 6 30 2 17
6 48 9 70 3 22 8 52 10 67 1 15 6 32 10 37 3 6 2 11 -3 11 -10 0 -9 36 1 46
11 11 8 553 -3 574 -8 15 -8 20 2 20 9 0 9 3 -2 10 -13 9 -13 10 0 10 13 0 13
1 0 10 -13 9 -13 10 0 10 9 0 11 3 5 8 -12 9 -15 21 -20 91 -3 31 -7 67 -11
81 -3 14 -7 36 -9 50 -2 14 -7 41 -11 60 -3 19 -8 44 -9 55 -1 11 -4 20 -5 20
-1 0 -4 9 -6 20 -7 50 -16 80 -26 92 -7 9 -7 13 0 13 7 0 6 13 -4 35 -8 20
-12 40 -9 45 4 6 1 10 -6 10 -6 0 -9 8 -6 20 3 10 -1 24 -8 30 -8 6 -11 18 -8
26 3 8 0 14 -7 14 -6 0 -10 6 -7 13 2 6 -4 31 -14 55 -10 23 -19 46 -20 50 -5
21 -11 40 -24 65 -8 15 -10 25 -5 22 6 -3 7 1 4 9 -3 9 -10 16 -15 16 -5 0 -8
3 -8 8 1 4 0 10 -1 15 -1 4 -3 10 -4 15 -1 4 -10 24 -19 46 -9 21 -17 42 -17
47 0 5 -5 9 -12 9 -6 0 -8 3 -5 6 3 4 1 16 -5 28 -7 11 -13 23 -14 26 -8 26
-30 70 -35 70 -4 0 -10 14 -14 30 -4 17 -11 30 -16 30 -5 0 -8 3 -7 8 2 9 -13
45 -22 52 -3 3 -17 27 -30 53 -14 26 -33 56 -42 66 -9 11 -14 21 -11 24 3 3
-4 16 -16 28 -12 13 -21 28 -21 35 0 7 -3 14 -8 16 -4 2 -25 30 -47 63 -21 33
-42 62 -47 63 -4 2 -8 9 -8 16 0 6 -9 18 -19 26 -11 7 -18 17 -15 22 3 4 0 8
-7 8 -7 0 -10 3 -7 6 3 3 -4 15 -16 28 -11 12 -32 37 -46 55 -85 110 -294 334
-303 325 -3 -3 -8 4 -12 15 -3 12 -9 21 -13 21 -4 0 -28 19 -53 43 -26 23 -68
60 -95 82 -26 22 -56 48 -66 58 -10 9 -18 14 -18 10 0 -3 -9 4 -20 17 -11 13
-20 20 -20 16 0 -4 -12 5 -27 19 -15 14 -31 25 -34 25 -3 0 -19 11 -35 25 -16
14 -34 25 -40 25 -7 0 -14 7 -18 15 -3 8 -12 15 -21 15 -8 0 -15 5 -15 10 0 6
-5 10 -11 10 -9 0 -97 55 -109 69 -3 3 -12 7 -20 9 -8 2 -22 10 -31 18 -9 8
-19 11 -22 7 -4 -3 -7 -1 -7 5 0 7 -7 12 -15 12 -8 0 -15 5 -15 10 0 6 -9 10
-20 10 -11 0 -20 4 -20 9 0 5 -11 12 -25 15 -14 4 -25 11 -25 16 0 5 -7 7 -15
4 -8 -4 -15 -2 -15 2 0 5 -15 15 -32 23 -18 7 -59 26 -90 42 -32 16 -58 25
-58 21 0 -4 -7 2 -15 12 -11 14 -15 16 -15 5 0 -9 -3 -10 -8 -3 -4 6 -25 17
-47 25 -22 7 -44 17 -50 21 -5 4 -19 8 -31 8 -12 0 -24 4 -26 10 -1 5 -13 11
-25 13 -12 2 -26 6 -29 10 -4 4 -17 7 -29 7 -11 0 -25 4 -31 10 -5 5 -22 11
-37 12 -15 1 -27 5 -27 9 0 3 -7 6 -15 7 -8 1 -22 3 -30 4 -8 1 -15 4 -15 7 0
3 -14 7 -31 8 -17 1 -37 8 -45 14 -8 6 -14 9 -14 6 0 -3 -17 -1 -37 4 -37 9
-76 17 -118 23 -11 2 -20 5 -20 6 0 3 -32 8 -77 12 -21 2 -38 6 -38 9 0 3 -16
6 -35 7 -57 3 -65 5 -65 16 0 6 -4 6 -11 -1 -7 -7 -22 -8 -45 -1 -19 5 -40 8
-46 7 -38 -5 -79 2 -72 12 4 8 1 8 -13 1 -12 -7 -25 -7 -36 -1 -9 6 -17 6 -17
1 0 -5 -7 -9 -15 -9 -8 0 -15 4 -15 9 0 5 -6 6 -12 1 -21 -12 -38 -12 -38 0 0
7 -5 5 -10 -3 -5 -8 -10 -10 -10 -4 0 6 -7 11 -15 11 -8 0 -15 -4 -15 -9 0 -5
-5 -6 -11 -2 -16 10 -89 14 -89 5 0 -4 -7 -8 -15 -8 -8 0 -15 3 -15 7 0 8 -49
5 -57 -4 -3 -3 -14 -1 -24 5 -11 5 -19 6 -19 1 0 -5 -7 -9 -15 -9 -8 0 -15 4
-15 8 0 4 -15 3 -32 -2 -41 -11 -41 -11 -33 1 3 6 4 10 1 10 -3 0 -8 -5 -11
-10z"/>
</g>
</svg>
